<svg fill="none" xmlns="http://www.w3.org/2000/svg" viewBox="0 0 23 23"><path fill-rule="evenodd" clip-rule="evenodd" d="M22.5 4.88c.15-.5 0-.88-.73-.88h-2.41c-.61 0-.9.32-1.05.68 0 0-1.22 2.97-2.95 4.9-.57.55-.82.73-1.13.73-.15 0-.38-.18-.38-.69V4.88c0-.6-.17-.88-.68-.88H9.4c-.38 0-.61.28-.61.55 0 .58.86.71.95 2.33v3.53c0 .77-.14.91-.44.91-.82 0-2.8-2.98-3.98-6.39C5.08 4.27 4.85 4 4.23 4h-2.4c-.7 0-.83.32-.83.68 0 .63.82 3.78 3.8 7.94C6.79 15.46 9.59 17 12.14 17c1.53 0 1.72-.34 1.72-.93v-2.15c0-.68.14-.82.63-.82.36 0 .97.18 2.4 1.55 1.63 1.62 1.9 2.35 2.81 2.35h2.41c.69 0 1.03-.34.83-1.02-.21-.67-1-1.65-2.03-2.8-.56-.66-1.4-1.37-1.65-1.73-.36-.46-.26-.66 0-1.06 0 0 2.93-4.11 3.23-5.51Z" fill="#83B3D3"/></svg>