<svg xmlns="http://www.w3.org/2000/svg"><style>:root svg:not(:target){display:none}</style><svg viewBox="0 0 12 9" id="arrow-select"><path fill="#000" d="m6.67 7.71 5.1-5.3c.3-.3.3-.9 0-1.2-.3-.3-.9-.3-1.2 0l-4.5 4.7-4.5-4.7c-.3-.3-.9-.3-1.2 0-.2.1-.3.4-.3.6 0 .2.1.4.3.6l5.1 5.3c.3.4.9.4 1.2 0Z"></path></svg><svg viewBox="0 0 16 15" id="calendar"><path fill="#000" d="M5.75 10c.3 0 .5-.2.5-.5s-.2-.5-.5-.5-.5.2-.5.5.2.5.5.5ZM15 2h-2V0h-1v2H4V0H3v2H1c-.6 0-1 .4-1 1v11c0 .5.4 1 1 1h14c.5 0 1-.5 1-1V3c0-.6-.5-1-1-1Zm0 12H1V7h14v7ZM1 6V3h2v2h1V3h8v2h1V3h2v3H1ZM8 10c.3 0 .5-.2.5-.5S8.3 9 8 9s-.5.2-.5.5.2.5.5.5ZM10.25 10c.3 0 .5-.2.5-.5s-.2-.5-.5-.5-.5.2-.5.5.2.5.5.5ZM5.75 11c-.3 0-.5.2-.5.5s.2.5.5.5.5-.2.5-.5-.2-.5-.5-.5ZM3.5 10c.3 0 .5-.2.5-.5S3.8 9 3.5 9s-.5.2-.5.5.2.5.5.5ZM3.5 11c-.3 0-.5.2-.5.5s.2.5.5.5.5-.2.5-.5-.2-.5-.5-.5ZM8 11c-.3 0-.5.2-.5.5s.2.5.5.5.5-.2.5-.5-.2-.5-.5-.5ZM10.25 11c-.3 0-.5.2-.5.5s.2.5.5.5.5-.2.5-.5-.2-.5-.5-.5ZM12.5 10c.3 0 .5-.2.5-.5s-.2-.5-.5-.5-.5.2-.5.5.2.5.5.5ZM12.5 11c-.3 0-.5.2-.5.5s.2.5.5.5.5-.2.5-.5-.2-.5-.5-.5Z"></path></svg><svg viewBox="0 0 20 20" id="checkbox"><path fill="#3f5e72" d="m15 5-6.5 7.4-3.4-3.9L4 9.7l4.5 5.2 7.7-8.6L15 5Z"></path></svg><svg viewBox="0 0 15 15" id="close"><path d="M14.49 1.78 13.19.5l-5.7 5.7L1.79.5.48 1.8l5.7 5.7-5.7 5.7 1.3 1.3 5.7-5.7 5.7 5.7 1.3-1.3-5.7-5.7 5.7-5.7Z"></path></svg><svg viewBox="0 0 20 20" id="heart"><path d="M9.9 19a.9.9 0 0 1-.8-.4c-5.4-6.1-6.7-7.5-7-7.9A5.4 5.4 0 0 1 6.5 2C7.8 2 9 2.5 10 3.3a5.46 5.46 0 0 1 9 4.1c0 1.3-.5 2.5-1.3 3.4l-7 7.9c-.2.2-.4.3-.8.3Zm-6-9.5c.3.4 3.5 4 6.1 6.9l6.2-7c.5-.5.7-1.2.7-2 0-1.8-1.5-3.3-3.3-3.3-1 0-2 .5-2.7 1.3-.3.3-.6.4-.9.4-.3 0-.6-.2-.8-.4-.7-.8-1.7-1.3-2.7-1.3-1.8 0-3.3 1.5-3.3 3.3-.1.9.3 1.6.7 2.1-.1 0-.1 0 0 0Z"></path></svg><svg viewBox="0 0 20 20" id="info"><path fill="#fff" d="M9 4h2v2H9V4Zm2 12H9V7h2v9Z"></path></svg><svg viewBox="0 0 115 34" id="logo-htmlacademy"><path d="M0 13.26v2.6h2.5v-2.6H0ZM11.6 4.86c-1.6 0-2.8.7-3.6 1.7h-.1V.36h-2v15.5h2v-5.3c0-2.1 1.3-3.6 3.3-3.6 1.8 0 2.9 1.4 2.9 3.2v5.7h2v-6.1c.1-3-1.8-4.9-4.5-4.9ZM26.6 5.16h-4.8v-3.7h-2v3.8h-1.9v2h1.9v6c0 1.7 1 2.7 2.7 2.7h4.1v-2h-3.7c-.7 0-1.1-.4-1.1-1.1v-5.7h4.8v-2ZM41.1 4.96c-1.6 0-2.9.8-3.5 2.1h-.1c-.6-1.2-1.8-2.1-3.4-2.1-1.4 0-2.5.8-3.1 1.8h-.1v-1.6H29v10.6h2v-5.4c0-2 1-3.5 2.6-3.5 1.5 0 2.4 1 2.4 2.6v6.3h2v-5.6c0-2.4 1.4-3.3 2.6-3.3 1.5 0 2.4 1 2.4 2.6v6.3h2v-6.5c.1-2.5-1.4-4.3-3.9-4.3ZM47.8 13.06c0 1.7 1 2.7 2.8 2.7h2v-2h-1.7c-.7 0-1.1-.4-1.1-1.1V.36h-2v12.7ZM28.9 20.06c-.9-1.1-2.2-1.8-3.9-1.8-3.1 0-5.4 2.3-5.4 5.6s2.3 5.6 5.4 5.6c1.8 0 3-.8 3.8-1.9h.1v1.6h2v-10.6h-2v1.5Zm-3.6 7.4c-2.2 0-3.6-1.6-3.6-3.6s1.4-3.6 3.6-3.6 3.6 1.6 3.6 3.6c0 1.9-1.4 3.6-3.6 3.6ZM44.2 22.36c-.5-2.4-2.6-4.1-5.4-4.1a5.4 5.4 0 0 0-5.6 5.6c0 3.1 2.2 5.6 5.6 5.6 2.8 0 4.9-1.8 5.4-4.2h-2.1a3.4 3.4 0 0 1-3.3 2.3c-2.2 0-3.6-1.6-3.6-3.6s1.4-3.6 3.6-3.6c1.6 0 2.8 1 3.3 2.2h2.1v-.2ZM55.1 20.06c-.9-1.1-2.2-1.8-3.9-1.8-3.1 0-5.4 2.3-5.4 5.6s2.3 5.6 5.4 5.6c1.8 0 3-.8 3.8-1.9h.1v1.6h2v-10.6h-2v1.5Zm-3.6 7.4c-2.2 0-3.6-1.6-3.6-3.6s1.4-3.6 3.6-3.6 3.6 1.6 3.6 3.6c0 1.9-1.5 3.6-3.6 3.6ZM68.7 20.16c-.9-1.1-2.2-1.9-3.9-1.9-3.1 0-5.4 2.3-5.4 5.6s2.2 5.6 5.4 5.6c1.7 0 3-.8 3.8-1.8h.1v1.5h2v-15.4h-2v6.4Zm-3.6 7.3c-2.2 0-3.6-1.6-3.6-3.6s1.4-3.6 3.6-3.6 3.6 1.6 3.6 3.6c-.1 2-1.5 3.6-3.6 3.6ZM78.3 18.26c-3.3 0-5.5 2.5-5.5 5.6 0 3 2.1 5.6 5.5 5.6 2.5 0 4.5-1.3 5.2-3.6h-2.1c-.5 1-1.6 1.6-3 1.6-1.9 0-3.3-1.3-3.4-2.9h8.8c.2-3.6-2-6.3-5.5-6.3Zm0 1.9c1.7 0 3 1 3.3 2.6h-6.5c.3-1.5 1.5-2.6 3.2-2.6ZM98.2 18.26c-1.6 0-2.9.8-3.6 2h-.1c-.6-1.2-1.8-2-3.4-2-1.4 0-2.5.7-3.1 1.8v-1.5h-1.9v10.6h2v-5.4c0-2 1-3.4 2.6-3.5 1.5 0 2.4 1 2.4 2.6v6.3h2v-5.6c0-2.4 1.4-3.3 2.6-3.3 1.5 0 2.4 1 2.4 2.6v6.3h2v-6.5c.1-2.6-1.4-4.4-3.9-4.4ZM109.4 27.36l-3.6-8.9h-2.2l4.8 11.6c-.3.9-.7 1.2-1.7 1.2h-2.5v2h2.5c1.8 0 2.8-.8 3.5-2.6l4.7-12.2h-2.1l-3.4 8.9Z"></path></svg><svg viewBox="0 0 20 20" id="minus"><path d="M3 9v2h14V9H3Z"></path></svg><svg viewBox="0 0 20 20" id="plus"><path d="M17 9h-6V3H9v6H3v2h6v6h2v-6h6V9Z"></path></svg><svg viewBox="0 0 20 20" id="radio"><circle cx="10" cy="10" r="5" fill="#3f5e72"></circle></svg><svg viewBox="0 0 20 20" id="search"><path d="m19.5 18-3.7-3.67a8 8 0 0 0 1.7-4.87 8 8 0 0 0-8-7.96c-4.4 0-8 3.68-8 8.06a8 8 0 0 0 12.9 6.26l3.7 3.68 1.4-1.5Zm-10-2.48a6 6 0 0 1-6-5.96 6 6 0 0 1 12 0 6 6 0 0 1-6 5.96Z"></path></svg><svg viewBox="0 0 24 17" id="star"><path d="m9 0 2.1 6.5H18l-5.6 4 2.2 6.5L9 13l-5.6 4 2.2-6.5-5.6-4h6.9L9 0Z" fill="#83B3D3"></path></svg><svg viewBox="0 0 19 9" id="tail"><path fill="#333" d="M9.5 0 19 9H0l9.5-9Z"></path></svg><svg viewBox="0 0 1200 57" id="advantage_driver"><path fill="#fff" d="M0 57V0l250 24V0l350 57L950 0v24l250-24v57H0Z"></path></svg><svg viewBox="0 0 78 78" id="advantage_food"><path fill="#83b3D3" d="M71.9 54.7H6.1C3.8 54.7 2 56.6 2 59v3.5c0 2.4 1.9 4.3 4.1 4.3H7v1.1C7 73.4 11.3 78 16.6 78h44.6c5.3 0 9.6-4.5 9.6-10.1v-1.1h.9c2.3 0 4.1-1.9 4.1-4.3V59a4 4 0 0 0-3.9-4.3ZM68 67.9c0 3.9-3 7-6.7 7H16.6c-3.7 0-6.7-3.2-6.7-7v-1.1H68v1.1Zm5.1-5.4c0 .7-.6 1.3-1.2 1.3H6c-.7 0-1.2-.6-1.2-1.3V59c0-.7.6-1.3 1.2-1.3h65.8c.7 0 1.2.6 1.2 1.3.1 0 .1 3.5.1 3.5ZM17.6 46.4l5.4 4.1 5.3-4.1 5.3 4.1 5.3-4.1 5.4 4.1 5.3-4.1 5.3 4.1 5.4-4.1 5.3 4.1 6.2-4.7-1.7-2.5-4.5 3.4-5.3-4.1-5.4 4.1-5.3-4.1-5.3 4.1-5.4-4.1-5.3 4.1-5.3-4.1-5.3 4.1-5.4-4.1-5.3 4.1-4.5-3.4-1.7 2.5 6.2 4.7 5.3-4.1Zm53.2-6.9c0-.6.1-1.2.1-1.9v-1.2C70.2 20.7 56.2 8 39 8 21.7 8 7.7 20.7 7 36.5v1.2c0 .6 0 1.2.1 1.8h63.7ZM39 11c15.6 0 28.4 11.3 29 25.5H10C10.6 22.4 23.4 11 39 11Zm0 14.3c1.05 0 1.9-.9 1.9-2s-.85-2-1.9-2c-1.05 0-1.9.9-1.9 2s.85 2 1.9 2Zm-7.8-5.1c1.05 0 1.9-.9 1.9-2s-.85-2-1.9-2c-1.05 0-1.9.9-1.9 2s.85 2 1.9 2Zm15.5 0c1.05 0 1.9-.9 1.9-2s-.85-2-1.9-2c-1.05 0-1.9.9-1.9 2s.85 2 1.9 2Z"></path></svg><svg viewBox="0 0 78 78" id="advantage_home"><path fill="#83b3d3" d="M39 5.38 1.44 42.94l2.12 2.12L11 37.62V75H7v3h65v-3h-5V37.62l7.44 7.44 2.12-2.12L67 33.38V6H53v13.38ZM56 9h8v21.38l-8-8zm8 66H14V34.62l25-25 25 25zM31 47v24h16V47Zm3 21V50h10v18ZM18 47h3v4h-3zm9 0h-3v4h3zm-9 6h3v4h-3zm9 0h-3v4h3zm24-6h3v4h-3zm9 0h-3v4h3zm-9 6h3v4h-3zm9 0h-3v4h3zM34 33c0-6.67 10-6.67 10 0a5 5 0 1 1-10 0zm5-8a8 8 0 1 0 0 16 8 8 0 0 0 0-16z"></path></svg><svg viewBox="0 0 78 78" id="advantage_souvenirs"><path fill="#83b3D3" d="M68.1 24.5H43.3c13.8-6.9 14.9-11.3 14.4-13.7-1.2-4-5.7-7-10-5.4-5.6 2.1-7.1 10.4-8.6 16.4-2-6.1-3.8-13.8-8.2-17.7-1.3-1.1-3.1-2.3-5.8-2-4 .4-9.8 5.4-7.5 11 2.3 5.4 9.7 8.8 14.6 11.5H9.9A2.9 2.9 0 0 0 7 27.5v11.3c0 1.6 1.3 2.9 2.9 2.9h.3V78H68V41.6h.1c1.6 0 2.9-1.3 2.9-2.9V27.4c0-1.6-1.3-2.9-2.9-2.9ZM49.4 7.9c2.1-.3 5 1.3 5.3 3.2.4 2.8-3.4 5.3-5.1 6.4-2.5 1.7-4.9 2.6-7.3 4.1.9-3.7 2.5-13 7.1-13.7Zm-22.9 10c-2.2-1.5-6.5-4.4-6.4-7.8.1-3.6 5.7-6.6 8.8-3.9 3.9 3.4 5.7 11.1 7.1 16.6-3.2-1.5-6.3-2.8-9.5-4.9Zm6 57.1H13.1V41.6h19.4V75Zm0-36.5H10v-11h22.5v11Zm10.2 0V75h-7.2V27.6h7.2v10.9ZM65 75H45.6V41.6H65V75Zm2.9-36.5H45.6v-11h22.3v11Z"></path></svg><svg viewBox="0 0 21 20" id="breadcrumbs_arrow"><path d="M13.11 9.47 8.36 5.22c-.25-.25-.75-.25-1.12 0-.38.25-.25.75 0 1l4.12 3.75-4 3.75a.76.76 0 0 0 0 1c0 .12.38.25.5.25.13 0 .38-.13.5-.25l4.75-4.25a.59.59 0 0 0 0-1Z"></path></svg><svg viewBox="0 0 21 20" id="breadcrumbs_home"><path d="m10.4 3-6 5.8V15h12V8.8l-6-5.8Zm5 11h-10V9.2l5-4.8 5 4.8V14Zm-7-1h1v-2.5h2V13h1V9.5h-4V13Z"></path></svg><svg viewBox="0 0 16 14" id="filter_cards"><path d="M4 0H0v6h4V0ZM16 0h-4v6h4V0ZM10 0H6v6h4V0ZM4 8H0v6h4V8ZM16 8h-4v6h4V8ZM10 8H6v6h4V8Z"></path></svg><svg viewBox="0 0 16 14" id="filter_list"><path d="M2 0H0v2h2V0ZM16 0H4v2h12V0ZM2 4H0v2h2V4ZM16 4H4v2h12V4ZM2 8H0v2h2V8ZM16 8H4v2h12V8ZM2 12H0v2h2v-2ZM16 12H4v2h12v-2Z"></path></svg><svg viewBox="0 0 16 14" id="filter_slideshow"><path d="M16 12H0v2h16v-2ZM14 2v6H2V2h12Zm2-2H0v10h16V0Z"></path></svg><svg viewBox="0 0 24 24" id="social_tg"><path d="M19.79 3.96 3.84 10.1c-1.09.44-1.08 1.05-.2 1.32l4.1 1.28 9.47-5.98c.44-.27.85-.13.52.17l-7.68 6.93-.28 4.22c.41 0 .6-.2.83-.41l1.99-1.94 4.13 3.06c.77.42 1.31.2 1.5-.7l2.72-12.8c.28-1.12-.43-1.62-1.16-1.3Z"></path></svg><svg viewBox="0 0 24 24" id="social_vk"><path d="M23.45 5.8c.17-.54 0-.94-.8-.94h-2.62c-.67 0-.98.34-1.14.73 0 0-1.34 3.2-3.23 5.27-.61.6-.89.8-1.22.8-.17 0-.42-.2-.42-.75v-5.1c0-.66-.19-.95-.74-.95H9.15c-.42 0-.67.3-.67.59 0 .62.95.76 1.05 2.51v3.8c0 .83-.16.98-.5.98-.88 0-3.05-3.2-4.33-6.88-.25-.72-.5-1-1.17-1H.9c-.75 0-.9.34-.9.73 0 .68.89 4.07 4.14 8.55 2.17 3.06 5.23 4.72 8.01 4.72 1.67 0 1.88-.37 1.88-1v-2.32c0-.74.16-.88.68-.88.4 0 1.06.19 2.62 1.66 1.78 1.75 2.07 2.54 3.07 2.54h2.63c.75 0 1.13-.37.91-1.1-.24-.72-1.09-1.77-2.22-3.02-.6-.71-1.53-1.48-1.8-1.86-.4-.5-.28-.71 0-1.15 0 0 3.2-4.42 3.53-5.93Z"></path></svg><svg viewBox="0 0 24 24" id="social_yt"><path d="M19.6 3.36H4.18C2.31 3.36 1 4.95 1 6.76v10.09c0 1.91 1.31 3.5 3.17 3.5h15.66c1.64 0 3.17-1.59 3.17-3.4V6.76c-.22-1.8-1.53-3.4-3.4-3.4ZM8.67 15.89V7.82L16 11.86l-7.33 4.03Z"></path></svg></svg>