<svg xmlns="http://www.w3.org/2000/svg"><style>:root{visibility:hidden}:target{visibility:visible}</style><svg fill="none" id="Advantage-icon-food" viewBox="0 0 76 72"><path d="M71.58 47.7H5.6c-2.3 0-4.11 1.9-4.11 4.3v3.5c0 2.4 1.9 4.3 4.11 4.3h.9v1.1c0 5.5 4.31 10.1 9.63 10.1h44.7c5.32 0 9.63-4.5 9.63-10.1v-1.1h.9c2.31 0 4.12-1.9 4.12-4.3V52a4 4 0 0 0-3.91-4.3Zm-3.91 13.2c0 3.9-3.01 7-6.72 7H16.14c-3.71 0-6.72-3.2-6.72-7v-1.1h58.25v1.1Zm5.1-5.4c0 .7-.6 1.3-1.2 1.3H5.52c-.7 0-1.2-.6-1.2-1.3V52c0-.7.6-1.3 1.2-1.3h65.97c.7 0 1.2.6 1.2 1.3.1 0 .1 3.5.1 3.5ZM17.14 39.4l5.41 4.1 5.32-4.1 5.3 4.1 5.32-4.1 5.42 4.1 5.31-4.1 5.31 4.1 5.42-4.1 5.31 4.1 6.22-4.7-1.7-2.5-4.52 3.4-5.31-4.1-5.42 4.1-5.31-4.1-5.31 4.1-5.42-4.1-5.31 4.1-5.31-4.1-5.32 4.1-5.41-4.1-5.31 4.1-4.52-3.4-1.7 2.5 6.22 4.7 5.3-4.1ZM9.52 32.5h60.95c0-.6.1-1.2.1-1.9v-1.2C69.87 13.7 55.84 1 38.6 1 21.25 1 7.21 13.7 6.51 29.5v1.2c0 .6 0 1.2.1 1.8h2.91ZM38.59 4c15.64 0 28.47 11.3 29.08 25.5H9.52C10.12 15.4 22.95 4 38.59 4Z" fill="#83B3D3"></path><path d="M38.6 18.3c1.05 0 1.9-.9 1.9-2s-.85-2-1.9-2c-1.06 0-1.91.9-1.91 2s.85 2 1.9 2ZM30.77 13.2c1.06 0 1.9-.9 1.9-2s-.84-2-1.9-2c-1.05 0-1.9.9-1.9 2s.85 2 1.9 2ZM46.31 13.2c1.05 0 1.9-.9 1.9-2s-.85-2-1.9-2c-1.05 0-1.9.9-1.9 2s.85 2 1.9 2Z" fill="#83B3D3"></path></svg><svg fill="none" id="Advantage-icon-home" viewBox="0 0 77 72"><path d="M31.12 65h16.06V41.2H31.12V65Zm2.91-20.9h10.14v18H34.03v-18Z" fill="#83B3D3"></path><path d="m74.4 39.3 2.1-2.1-9.94-9.9V0H52.6v13.6L38.95 0 1.5 37.2l2.1 2.1 7.84-7.8v37.6H7.42V72h64.16v-2.9h-5.12V31.5l7.93 7.8ZM63.54 69.1h-49.2V28.5l24.6-24.4 24.6 24.4v40.6Zm0-44.7-7.93-7.9V2.9h7.93v21.5Z" fill="#83B3D3"></path><path d="M31.32 27.1c0 4.3 3.51 7.7 7.73 7.7a7.8 7.8 0 0 0 7.83-7.7c0-4.3-3.51-7.7-7.83-7.7a7.72 7.72 0 0 0-7.73 7.7Zm7.83-5a5 5 0 0 1 5.02 4.9c0 2.7-2.2 4.9-5.02 4.9a5 5 0 0 1-5.02-4.9c0-2.7 2.2-4.9 5.02-4.9ZM21.48 41.2h-3.01v3.9h3.01v-3.9ZM27.4 41.2h-3v3.9h3v-3.9ZM21.48 47.2h-3.01v3.9h3.01v-3.9ZM27.4 47.2h-3v3.9h3v-3.9ZM53.5 41.2h-3v3.9h3v-3.9ZM59.43 41.2h-3.01v3.9h3.01v-3.9ZM53.5 47.2h-3v3.9h3v-3.9ZM59.43 47.2h-3.01v3.9h3.01v-3.9Z" fill="#83B3D3"></path></svg><svg fill="none" id="Advantage-icon-souvenirs" viewBox="0 0 76 76"><path d="M67.6 22.46H42.8c13.8-6.9 14.9-11.3 14.4-13.7-1.2-4.01-5.7-7.01-10-5.41-5.6 2.1-7.1 10.4-8.6 16.41-2-6.1-3.8-13.8-8.2-17.71-1.3-1.1-3.1-2.3-5.8-2-4 .4-9.8 5.4-7.5 11 2.3 5.4 9.7 8.81 14.6 11.51H9.4a2.9 2.9 0 0 0-2.9 2.9v11.31c0 1.6 1.3 2.9 2.9 2.9h.3V76h57.8V39.57h.1c1.6 0 2.9-1.3 2.9-2.9v-11.3c0-1.6-1.3-2.9-2.9-2.9ZM48.9 5.86c2.1-.3 5 1.3 5.3 3.2.4 2.8-3.4 5.3-5.1 6.4-2.5 1.7-4.9 2.6-7.3 4.1.9-3.7 2.5-13 7.1-13.7Zm-22.9 10c-2.2-1.5-6.5-4.4-6.4-7.8.1-3.61 5.7-6.61 8.8-3.91 3.9 3.4 5.7 11.1 7.1 16.61-3.2-1.5-6.3-2.8-9.5-4.9ZM32 73H12.6V39.57H32V73Zm0-36.53H9.5v-11H32v11Zm10.2 0V73H35V25.57h7.2v10.9ZM64.5 73H45.1V39.57h19.4V73Zm2.9-36.53H45.1v-11h22.3v11Z" fill="#83B3D3"></path></svg><svg fill="none" id="Search" viewBox="0 0 44 64"><path d="m31.5 40-3.7-3.67c1-1.3 1.7-2.98 1.7-4.87a8 8 0 0 0-8-7.96c-4.4 0-8 3.68-8 8.06a8 8 0 0 0 12.9 6.26l3.7 3.68 1.4-1.5Zm-10-2.48a6 6 0 0 1-6-5.96 6 6 0 0 1 12 0 6 6 0 0 1-6 5.96Z" fill="#000"></path></svg><svg fill="none" id="arrow-down" viewBox="0 0 12 9"><path d="m6.67 7.71 5.1-5.3c.3-.3.3-.9 0-1.2-.3-.3-.9-.3-1.2 0l-4.5 4.7-4.5-4.7c-.3-.3-.9-.3-1.2 0-.2.1-.3.4-.3.6 0 .2.1.4.3.6l5.1 5.3c.3.4.9.4 1.2 0Z" fill="#000"></path></svg><svg fill="none" id="breadcrumbs-arrow" viewBox="0 0 8 21"><path d="M6.92 9.97 2.17 5.72c-.25-.25-.75-.25-1.13 0-.37.25-.25.75 0 1l4.13 3.75-4 3.75a.76.76 0 0 0 0 1c0 .12.37.25.5.25.12 0 .37-.13.5-.25l4.75-4.25a.59.59 0 0 0 0-1Z" fill="#fff"></path></svg><svg fill="none" id="breadcrumbs-home" viewBox="0 0 13 15"><path d="m6.5.5-6 5.8v6.2h12V6.3L6.5.5Zm5 11h-10V6.7l5-4.8 5 4.8v4.8Z" fill="#fff"></path><path d="M4.5 10.5h1V8h2v2.5h1V7h-4v3.5Z" fill="#fff"></path></svg><svg fill="none" viewBox="0 0 16 14" id="filter-view-1"><path d="M4 0H0v6h4V0ZM16 0h-4v6h4V0ZM10 0H6v6h4V0ZM4 8H0v6h4V8ZM16 8h-4v6h4V8ZM10 8H6v6h4V8Z" fill="#000"></path></svg><svg fill="none" viewBox="0 0 16 14" id="filter-view-2"><path d="M16 12H0v2h16v-2ZM14 2v6H2V2h12Zm2-2H0v10h16V0Z" fill="#000"></path></svg><svg fill="none" viewBox="0 0 16 14" id="filter-view-3"><path d="M2 0H0v2h2V0ZM16 0H4v2h12V0ZM2 4H0v2h2V4ZM16 4H4v2h12V4ZM2 8H0v2h2V8ZM16 8H4v2h12V8ZM2 12H0v2h2v-2ZM16 12H4v2h12v-2Z" fill="#000"></path></svg><svg fill="none" id="footer-sprits-seti" viewBox="0 0 142 41"><path fill-rule="evenodd" clip-rule="evenodd" d="M35.12 14.8c.16-.54 0-.94-.8-.94H31.7c-.67 0-.98.34-1.15.73 0 0-1.33 3.2-3.22 5.27-.61.6-.9.8-1.23.8-.16 0-.41-.2-.41-.75v-5.1c0-.66-.19-.95-.74-.95h-4.13c-.42 0-.67.3-.67.59 0 .62.95.76 1.04 2.51v3.8c0 .83-.15.98-.48.98-.9 0-3.06-3.2-4.34-6.88-.25-.72-.5-1-1.18-1h-2.62c-.75 0-.9.34-.9.73 0 .68.89 4.07 4.14 8.55 2.17 3.06 5.23 4.72 8 4.72 1.68 0 1.88-.37 1.88-1v-2.32c0-.74.16-.88.7-.88.38 0 1.05.19 2.6 1.66 1.79 1.75 2.08 2.54 3.08 2.54h2.63c.75 0 1.12-.37.9-1.1-.23-.72-1.08-1.77-2.2-3.02-.62-.71-1.54-1.48-1.82-1.86-.39-.5-.28-.71 0-1.15 0 0 3.2-4.42 3.54-5.93Z" fill="#83B3D3"></path><path d="M78.78 12.96 62.84 19.1c-1.09.44-1.08 1.05-.2 1.32l4.1 1.28 9.47-5.98c.44-.27.85-.13.52.17l-7.68 6.93-.28 4.22c.41 0 .6-.2.83-.41l1.99-1.94 4.13 3.06c.77.42 1.31.2 1.5-.7l2.72-12.8c.28-1.12-.43-1.62-1.16-1.3ZM125.94 12.36h-15.43c-1.86 0-3.18 1.59-3.18 3.4v10.09c0 1.91 1.32 3.5 3.18 3.5h15.65c1.64 0 3.17-1.59 3.17-3.4v-10.2c-.22-1.8-1.53-3.4-3.39-3.4ZM115 24.89v-8.07l7.33 4.04-7.33 4.03Z" fill="#83B3D3"></path></svg><svg fill="none" id="heart" viewBox="0 0 20 20"><path d="M9.9 19a.9.9 0 0 1-.8-.4c-5.4-6.1-6.7-7.5-7-7.9A5.4 5.4 0 0 1 6.5 2C7.8 2 9 2.5 10 3.3a5.46 5.46 0 0 1 9 4.1c0 1.3-.5 2.5-1.3 3.4l-7 7.9c-.2.2-.4.3-.8.3Zm-6-9.5c.3.4 3.5 4 6.1 6.9l6.2-7c.5-.5.7-1.2.7-2 0-1.8-1.5-3.3-3.3-3.3-1 0-2 .5-2.7 1.3-.3.3-.6.4-.9.4-.3 0-.6-.2-.8-.4-.7-.8-1.7-1.3-2.7-1.3-1.8 0-3.3 1.5-3.3 3.3-.1.9.3 1.6.7 2.1-.1 0-.1 0 0 0Z" fill="#000"></path></svg><svg fill="none" id="star" viewBox="0 0 18 17"><path d="m9 0 2.1 6.5H18l-5.6 4 2.2 6.5L9 13l-5.6 4 2.2-6.5-5.6-4h6.9L9 0Z" fill="#83B3D3"></path></svg></svg>